<svg width="400" height="200" viewBox="0 0 400 200" fill="none" xmlns="http://www.w3.org/2000/svg">
<rect width="400" height="200" fill="#F2E3BC"/>
<line x1="385.003" y1="55.4737" x2="15.0027" y2="55.4737" stroke="#C19875"/>
<path d="M16.848 31.052H20.928V32H15.552V31.136L19.608 24.584H15.6V23.636H20.904V24.5L16.848 31.052ZM22.9802 24.356C22.7722 24.356 22.5962 24.284 22.4522 24.14C22.3082 23.996 22.2362 23.82 22.2362 23.612C22.2362 23.404 22.3082 23.228 22.4522 23.084C22.5962 22.94 22.7722 22.868 22.9802 22.868C23.1802 22.868 23.3482 22.94 23.4842 23.084C23.6282 23.228 23.7002 23.404 23.7002 23.612C23.7002 23.82 23.6282 23.996 23.4842 24.14C23.3482 24.284 23.1802 24.356 22.9802 24.356ZM23.5082 25.424V32H22.4162V25.424H23.5082ZM33.8533 23.696V32H32.7613V25.808L30.0013 32H29.2333L26.4613 25.796V32H25.3693V23.696H26.5453L29.6173 30.56L32.6893 23.696H33.8533ZM44.1893 23.696V32H43.0973V25.808L40.3373 32H39.5693L36.7973 25.796V32H35.7053V23.696H36.8813L39.9533 30.56L43.0253 23.696H44.1893ZM51.1892 23.636V24.524H48.9092V32H47.8172V24.524H45.5252V23.636H51.1892ZM59.9206 27.692C60.2246 27.74 60.5006 27.864 60.7486 28.064C61.0046 28.264 61.2046 28.512 61.3486 28.808C61.5006 29.104 61.5766 29.42 61.5766 29.756C61.5766 30.18 61.4686 30.564 61.2526 30.908C61.0366 31.244 60.7206 31.512 60.3046 31.712C59.8966 31.904 59.4126 32 58.8526 32H55.7326V23.636H58.7326C59.3006 23.636 59.7846 23.732 60.1846 23.924C60.5846 24.108 60.8846 24.36 61.0846 24.68C61.2846 25 61.3846 25.36 61.3846 25.76C61.3846 26.256 61.2486 26.668 60.9766 26.996C60.7126 27.316 60.3606 27.548 59.9206 27.692ZM56.8246 27.248H58.6606C59.1726 27.248 59.5686 27.128 59.8486 26.888C60.1286 26.648 60.2686 26.316 60.2686 25.892C60.2686 25.468 60.1286 25.136 59.8486 24.896C59.5686 24.656 59.1646 24.536 58.6366 24.536H56.8246V27.248ZM58.7566 31.1C59.3006 31.1 59.7246 30.972 60.0286 30.716C60.3326 30.46 60.4846 30.104 60.4846 29.648C60.4846 29.184 60.3246 28.82 60.0046 28.556C59.6846 28.284 59.2566 28.148 58.7206 28.148H56.8246V31.1H58.7566ZM63.656 24.356C63.448 24.356 63.272 24.284 63.128 24.14C62.984 23.996 62.912 23.82 62.912 23.612C62.912 23.404 62.984 23.228 63.128 23.084C63.272 22.94 63.448 22.868 63.656 22.868C63.856 22.868 64.024 22.94 64.16 23.084C64.304 23.228 64.376 23.404 64.376 23.612C64.376 23.82 64.304 23.996 64.16 24.14C64.024 24.284 63.856 24.356 63.656 24.356ZM64.184 25.424V32H63.092V25.424H64.184ZM69.2491 25.304C70.0491 25.304 70.6971 25.548 71.1931 26.036C71.6891 26.516 71.9371 27.212 71.9371 28.124V32H70.8571V28.28C70.8571 27.624 70.6931 27.124 70.3651 26.78C70.0371 26.428 69.5891 26.252 69.0211 26.252C68.4451 26.252 67.9851 26.432 67.6411 26.792C67.3051 27.152 67.1371 27.676 67.1371 28.364V32H66.0451V25.424H67.1371V26.36C67.3531 26.024 67.6451 25.764 68.0131 25.58C68.3891 25.396 68.8011 25.304 69.2491 25.304ZM73.3129 28.688C73.3129 28.016 73.4489 27.428 73.7209 26.924C73.9929 26.412 74.3649 26.016 74.8369 25.736C75.3169 25.456 75.8489 25.316 76.4329 25.316C77.0089 25.316 77.5089 25.44 77.9329 25.688C78.3569 25.936 78.6729 26.248 78.8809 26.624V25.424H79.9849V32H78.8809V30.776C78.6649 31.16 78.3409 31.48 77.9089 31.736C77.4849 31.984 76.9889 32.108 76.4209 32.108C75.8369 32.108 75.3089 31.964 74.8369 31.676C74.3649 31.388 73.9929 30.984 73.7209 30.464C73.4489 29.944 73.3129 29.352 73.3129 28.688ZM78.8809 28.7C78.8809 28.204 78.7809 27.772 78.5809 27.404C78.3809 27.036 78.1089 26.756 77.7649 26.564C77.4289 26.364 77.0569 26.264 76.6489 26.264C76.2409 26.264 75.8689 26.36 75.5329 26.552C75.1969 26.744 74.9289 27.024 74.7289 27.392C74.5289 27.76 74.4289 28.192 74.4289 28.688C74.4289 29.192 74.5289 29.632 74.7289 30.008C74.9289 30.376 75.1969 30.66 75.5329 30.86C75.8689 31.052 76.2409 31.148 76.6489 31.148C77.0569 31.148 77.4289 31.052 77.7649 30.86C78.1089 30.66 78.3809 30.376 78.5809 30.008C78.7809 29.632 78.8809 29.196 78.8809 28.7ZM87.6623 25.424V32H86.5703V31.028C86.3623 31.364 86.0703 31.628 85.6943 31.82C85.3263 32.004 84.9183 32.096 84.4703 32.096C83.9583 32.096 83.4983 31.992 83.0903 31.784C82.6823 31.568 82.3583 31.248 82.1183 30.824C81.8863 30.4 81.7703 29.884 81.7703 29.276V25.424H82.8503V29.132C82.8503 29.78 83.0143 30.28 83.3423 30.632C83.6703 30.976 84.1183 31.148 84.6863 31.148C85.2703 31.148 85.7303 30.968 86.0663 30.608C86.4023 30.248 86.5703 29.724 86.5703 29.036V25.424H87.6623ZM90.598 26.492C90.79 26.116 91.062 25.824 91.414 25.616C91.774 25.408 92.21 25.304 92.722 25.304V26.432H92.434C91.21 26.432 90.598 27.096 90.598 28.424V32H89.506V25.424H90.598V26.492ZM93.5746 28.688C93.5746 28.016 93.7106 27.428 93.9826 26.924C94.2546 26.412 94.6266 26.016 95.0986 25.736C95.5786 25.456 96.1106 25.316 96.6946 25.316C97.2706 25.316 97.7706 25.44 98.1946 25.688C98.6186 25.936 98.9346 26.248 99.1426 26.624V25.424H100.247V32H99.1426V30.776C98.9266 31.16 98.6026 31.48 98.1706 31.736C97.7466 31.984 97.2506 32.108 96.6826 32.108C96.0986 32.108 95.5706 31.964 95.0986 31.676C94.6266 31.388 94.2546 30.984 93.9826 30.464C93.7106 29.944 93.5746 29.352 93.5746 28.688ZM99.1426 28.7C99.1426 28.204 99.0426 27.772 98.8426 27.404C98.6426 27.036 98.3706 26.756 98.0266 26.564C97.6906 26.364 97.3186 26.264 96.9106 26.264C96.5026 26.264 96.1306 26.36 95.7946 26.552C95.4586 26.744 95.1906 27.024 94.9906 27.392C94.7906 27.76 94.6906 28.192 94.6906 28.688C94.6906 29.192 94.7906 29.632 94.9906 30.008C95.1906 30.376 95.4586 30.66 95.7946 30.86C96.1306 31.052 96.5026 31.148 96.9106 31.148C97.3186 31.148 97.6906 31.052 98.0266 30.86C98.3706 30.66 98.6426 30.376 98.8426 30.008C99.0426 29.632 99.1426 29.196 99.1426 28.7ZM103.184 23.12V32H102.092V23.12H103.184ZM110.848 23.636C111.76 23.636 112.548 23.808 113.212 24.152C113.884 24.488 114.396 24.972 114.748 25.604C115.108 26.236 115.288 26.98 115.288 27.836C115.288 28.692 115.108 29.436 114.748 30.068C114.396 30.692 113.884 31.172 113.212 31.508C112.548 31.836 111.76 32 110.848 32H108.244V23.636H110.848ZM110.848 31.1C111.928 31.1 112.752 30.816 113.32 30.248C113.888 29.672 114.172 28.868 114.172 27.836C114.172 26.796 113.884 25.984 113.308 25.4C112.74 24.816 111.92 24.524 110.848 24.524H109.336V31.1H110.848ZM122.729 28.46C122.729 28.668 122.717 28.888 122.693 29.12H117.437C117.477 29.768 117.697 30.276 118.097 30.644C118.505 31.004 118.997 31.184 119.573 31.184C120.045 31.184 120.437 31.076 120.749 30.86C121.069 30.636 121.293 30.34 121.421 29.972H122.597C122.421 30.604 122.069 31.12 121.541 31.52C121.013 31.912 120.357 32.108 119.573 32.108C118.949 32.108 118.389 31.968 117.893 31.688C117.405 31.408 117.021 31.012 116.741 30.5C116.461 29.98 116.321 29.38 116.321 28.7C116.321 28.02 116.457 27.424 116.729 26.912C117.001 26.4 117.381 26.008 117.869 25.736C118.365 25.456 118.933 25.316 119.573 25.316C120.197 25.316 120.749 25.452 121.229 25.724C121.709 25.996 122.077 26.372 122.333 26.852C122.597 27.324 122.729 27.86 122.729 28.46ZM121.601 28.232C121.601 27.816 121.509 27.46 121.325 27.164C121.141 26.86 120.889 26.632 120.569 26.48C120.257 26.32 119.909 26.24 119.525 26.24C118.973 26.24 118.501 26.416 118.109 26.768C117.725 27.12 117.505 27.608 117.449 28.232H121.601ZM123.762 28.7C123.762 28.02 123.898 27.428 124.17 26.924C124.442 26.412 124.818 26.016 125.298 25.736C125.786 25.456 126.342 25.316 126.966 25.316C127.774 25.316 128.438 25.512 128.958 25.904C129.486 26.296 129.834 26.84 130.002 27.536H128.826C128.714 27.136 128.494 26.82 128.166 26.588C127.846 26.356 127.446 26.24 126.966 26.24C126.342 26.24 125.838 26.456 125.454 26.888C125.07 27.312 124.878 27.916 124.878 28.7C124.878 29.492 125.07 30.104 125.454 30.536C125.838 30.968 126.342 31.184 126.966 31.184C127.446 31.184 127.846 31.072 128.166 30.848C128.486 30.624 128.706 30.304 128.826 29.888H130.002C129.826 30.56 129.474 31.1 128.946 31.508C128.418 31.908 127.758 32.108 126.966 32.108C126.342 32.108 125.786 31.968 125.298 31.688C124.818 31.408 124.442 31.012 124.17 30.5C123.898 29.988 123.762 29.388 123.762 28.7ZM134.327 32.108C133.711 32.108 133.151 31.968 132.647 31.688C132.151 31.408 131.759 31.012 131.471 30.5C131.191 29.98 131.051 29.38 131.051 28.7C131.051 28.028 131.195 27.436 131.483 26.924C131.779 26.404 132.179 26.008 132.683 25.736C133.187 25.456 133.751 25.316 134.375 25.316C134.999 25.316 135.563 25.456 136.067 25.736C136.571 26.008 136.967 26.4 137.255 26.912C137.551 27.424 137.699 28.02 137.699 28.7C137.699 29.38 137.547 29.98 137.243 30.5C136.947 31.012 136.543 31.408 136.031 31.688C135.519 31.968 134.951 32.108 134.327 32.108ZM134.327 31.148C134.719 31.148 135.087 31.056 135.431 30.872C135.775 30.688 136.051 30.412 136.259 30.044C136.475 29.676 136.583 29.228 136.583 28.7C136.583 28.172 136.479 27.724 136.271 27.356C136.063 26.988 135.791 26.716 135.455 26.54C135.119 26.356 134.755 26.264 134.363 26.264C133.963 26.264 133.595 26.356 133.259 26.54C132.931 26.716 132.667 26.988 132.467 27.356C132.267 27.724 132.167 28.172 132.167 28.7C132.167 29.236 132.263 29.688 132.455 30.056C132.655 30.424 132.919 30.7 133.247 30.884C133.575 31.06 133.935 31.148 134.327 31.148ZM138.727 28.688C138.727 28.016 138.863 27.428 139.135 26.924C139.407 26.412 139.779 26.016 140.251 25.736C140.731 25.456 141.267 25.316 141.859 25.316C142.371 25.316 142.847 25.436 143.287 25.676C143.727 25.908 144.063 26.216 144.295 26.6V23.12H145.399V32H144.295V30.764C144.079 31.156 143.759 31.48 143.335 31.736C142.911 31.984 142.415 32.108 141.847 32.108C141.263 32.108 140.731 31.964 140.251 31.676C139.779 31.388 139.407 30.984 139.135 30.464C138.863 29.944 138.727 29.352 138.727 28.688ZM144.295 28.7C144.295 28.204 144.195 27.772 143.995 27.404C143.795 27.036 143.523 26.756 143.179 26.564C142.843 26.364 142.471 26.264 142.063 26.264C141.655 26.264 141.283 26.36 140.947 26.552C140.611 26.744 140.343 27.024 140.143 27.392C139.943 27.76 139.843 28.192 139.843 28.688C139.843 29.192 139.943 29.632 140.143 30.008C140.343 30.376 140.611 30.66 140.947 30.86C141.283 31.052 141.655 31.148 142.063 31.148C142.471 31.148 142.843 31.052 143.179 30.86C143.523 30.66 143.795 30.376 143.995 30.008C144.195 29.632 144.295 29.196 144.295 28.7ZM153.244 28.46C153.244 28.668 153.232 28.888 153.208 29.12H147.952C147.992 29.768 148.212 30.276 148.612 30.644C149.02 31.004 149.512 31.184 150.088 31.184C150.56 31.184 150.952 31.076 151.264 30.86C151.584 30.636 151.808 30.34 151.936 29.972H153.112C152.936 30.604 152.584 31.12 152.056 31.52C151.528 31.912 150.872 32.108 150.088 32.108C149.464 32.108 148.904 31.968 148.408 31.688C147.92 31.408 147.536 31.012 147.256 30.5C146.976 29.98 146.836 29.38 146.836 28.7C146.836 28.02 146.972 27.424 147.244 26.912C147.516 26.4 147.896 26.008 148.384 25.736C148.88 25.456 149.448 25.316 150.088 25.316C150.712 25.316 151.264 25.452 151.744 25.724C152.224 25.996 152.592 26.372 152.848 26.852C153.112 27.324 153.244 27.86 153.244 28.46ZM152.116 28.232C152.116 27.816 152.024 27.46 151.84 27.164C151.656 26.86 151.404 26.632 151.084 26.48C150.772 26.32 150.424 26.24 150.04 26.24C149.488 26.24 149.016 26.416 148.624 26.768C148.24 27.12 148.02 27.608 147.964 28.232H152.116ZM155.778 26.492C155.97 26.116 156.242 25.824 156.594 25.616C156.954 25.408 157.39 25.304 157.902 25.304V26.432H157.614C156.39 26.432 155.778 27.096 155.778 28.424V32H154.686V25.424H155.778V26.492Z" fill="black"/>
<path d="M21.53 106.03L18.9 113H17.85L15.22 106.03H16.19L18.38 112.04L20.57 106.03H21.53ZM24.9178 113.09C24.4045 113.09 23.9378 112.973 23.5178 112.74C23.1045 112.507 22.7778 112.177 22.5378 111.75C22.3045 111.317 22.1878 110.817 22.1878 110.25C22.1878 109.69 22.3078 109.197 22.5478 108.77C22.7945 108.337 23.1278 108.007 23.5478 107.78C23.9678 107.547 24.4378 107.43 24.9578 107.43C25.4778 107.43 25.9478 107.547 26.3678 107.78C26.7878 108.007 27.1178 108.333 27.3578 108.76C27.6045 109.187 27.7278 109.683 27.7278 110.25C27.7278 110.817 27.6011 111.317 27.3478 111.75C27.1011 112.177 26.7645 112.507 26.3378 112.74C25.9111 112.973 25.4378 113.09 24.9178 113.09ZM24.9178 112.29C25.2445 112.29 25.5511 112.213 25.8378 112.06C26.1245 111.907 26.3545 111.677 26.5278 111.37C26.7078 111.063 26.7978 110.69 26.7978 110.25C26.7978 109.81 26.7111 109.437 26.5378 109.13C26.3645 108.823 26.1378 108.597 25.8578 108.45C25.5778 108.297 25.2745 108.22 24.9478 108.22C24.6145 108.22 24.3078 108.297 24.0278 108.45C23.7545 108.597 23.5345 108.823 23.3678 109.13C23.2011 109.437 23.1178 109.81 23.1178 110.25C23.1178 110.697 23.1978 111.073 23.3578 111.38C23.5245 111.687 23.7445 111.917 24.0178 112.07C24.2911 112.217 24.5911 112.29 24.9178 112.29ZM29.8343 105.6V113H28.9243V105.6H29.8343ZM36.2452 107.52V113H35.3352V112.19C35.1619 112.47 34.9186 112.69 34.6052 112.85C34.2986 113.003 33.9586 113.08 33.5852 113.08C33.1586 113.08 32.7752 112.993 32.4352 112.82C32.0952 112.64 31.8252 112.373 31.6252 112.02C31.4319 111.667 31.3352 111.237 31.3352 110.73V107.52H32.2352V110.61C32.2352 111.15 32.3719 111.567 32.6452 111.86C32.9186 112.147 33.2919 112.29 33.7652 112.29C34.2519 112.29 34.6352 112.14 34.9152 111.84C35.1952 111.54 35.3352 111.103 35.3352 110.53V107.52H36.2452ZM44.3717 107.42C44.7984 107.42 45.1784 107.51 45.5117 107.69C45.8451 107.863 46.1084 108.127 46.3017 108.48C46.4951 108.833 46.5917 109.263 46.5917 109.77V113H45.6917V109.9C45.6917 109.353 45.5551 108.937 45.2817 108.65C45.0151 108.357 44.6517 108.21 44.1917 108.21C43.7184 108.21 43.3417 108.363 43.0617 108.67C42.7817 108.97 42.6417 109.407 42.6417 109.98V113H41.7417V109.9C41.7417 109.353 41.6051 108.937 41.3317 108.65C41.0651 108.357 40.7017 108.21 40.2417 108.21C39.7684 108.21 39.3917 108.363 39.1117 108.67C38.8317 108.97 38.6917 109.407 38.6917 109.98V113H37.7817V107.52H38.6917V108.31C38.8717 108.023 39.1117 107.803 39.4117 107.65C39.7184 107.497 40.0551 107.42 40.4217 107.42C40.8817 107.42 41.2884 107.523 41.6417 107.73C41.9951 107.937 42.2584 108.24 42.4317 108.64C42.5851 108.253 42.8384 107.953 43.1917 107.74C43.5451 107.527 43.9384 107.42 44.3717 107.42ZM53.0845 110.05C53.0845 110.223 53.0745 110.407 53.0545 110.6H48.6745C48.7078 111.14 48.8911 111.563 49.2245 111.87C49.5645 112.17 49.9745 112.32 50.4545 112.32C50.8478 112.32 51.1745 112.23 51.4345 112.05C51.7011 111.863 51.8878 111.617 51.9945 111.31H52.9745C52.8278 111.837 52.5345 112.267 52.0945 112.6C51.6545 112.927 51.1078 113.09 50.4545 113.09C49.9345 113.09 49.4678 112.973 49.0545 112.74C48.6478 112.507 48.3278 112.177 48.0945 111.75C47.8611 111.317 47.7445 110.817 47.7445 110.25C47.7445 109.683 47.8578 109.187 48.0845 108.76C48.3111 108.333 48.6278 108.007 49.0345 107.78C49.4478 107.547 49.9211 107.43 50.4545 107.43C50.9745 107.43 51.4345 107.543 51.8345 107.77C52.2345 107.997 52.5411 108.31 52.7545 108.71C52.9745 109.103 53.0845 109.55 53.0845 110.05ZM52.1445 109.86C52.1445 109.513 52.0678 109.217 51.9145 108.97C51.7611 108.717 51.5511 108.527 51.2845 108.4C51.0245 108.267 50.7345 108.2 50.4145 108.2C49.9545 108.2 49.5611 108.347 49.2345 108.64C48.9145 108.933 48.7311 109.34 48.6845 109.86H52.1445Z" fill="black"/>
<path d="M22.84 148.08V155H21.93V149.84L19.63 155H18.99L16.68 149.83V155H15.77V148.08H16.75L19.31 153.8L21.87 148.08H22.84ZM26.7733 155.09C26.2599 155.09 25.7933 154.973 25.3733 154.74C24.9599 154.507 24.6333 154.177 24.3933 153.75C24.1599 153.317 24.0433 152.817 24.0433 152.25C24.0433 151.69 24.1633 151.197 24.4033 150.77C24.6499 150.337 24.9833 150.007 25.4033 149.78C25.8233 149.547 26.2933 149.43 26.8133 149.43C27.3333 149.43 27.8033 149.547 28.2233 149.78C28.6433 150.007 28.9733 150.333 29.2133 150.76C29.4599 151.187 29.5833 151.683 29.5833 152.25C29.5833 152.817 29.4566 153.317 29.2033 153.75C28.9566 154.177 28.6199 154.507 28.1933 154.74C27.7666 154.973 27.2933 155.09 26.7733 155.09ZM26.7733 154.29C27.0999 154.29 27.4066 154.213 27.6933 154.06C27.9799 153.907 28.2099 153.677 28.3833 153.37C28.5633 153.063 28.6533 152.69 28.6533 152.25C28.6533 151.81 28.5666 151.437 28.3933 151.13C28.2199 150.823 27.9933 150.597 27.7133 150.45C27.4333 150.297 27.1299 150.22 26.8033 150.22C26.4699 150.22 26.1633 150.297 25.8833 150.45C25.6099 150.597 25.3899 150.823 25.2233 151.13C25.0566 151.437 24.9733 151.81 24.9733 152.25C24.9733 152.697 25.0533 153.073 25.2133 153.38C25.3799 153.687 25.5999 153.917 25.8733 154.07C26.1466 154.217 26.4466 154.29 26.7733 154.29ZM30.4398 152.24C30.4398 151.68 30.5531 151.19 30.7798 150.77C31.0064 150.343 31.3164 150.013 31.7098 149.78C32.1098 149.547 32.5564 149.43 33.0498 149.43C33.4764 149.43 33.8731 149.53 34.2398 149.73C34.6064 149.923 34.8864 150.18 35.0798 150.5V147.6H35.9998V155H35.0798V153.97C34.8998 154.297 34.6331 154.567 34.2798 154.78C33.9264 154.987 33.5131 155.09 33.0398 155.09C32.5531 155.09 32.1098 154.97 31.7098 154.73C31.3164 154.49 31.0064 154.153 30.7798 153.72C30.5531 153.287 30.4398 152.793 30.4398 152.24ZM35.0798 152.25C35.0798 151.837 34.9964 151.477 34.8298 151.17C34.6631 150.863 34.4364 150.63 34.1498 150.47C33.8698 150.303 33.5598 150.22 33.2198 150.22C32.8798 150.22 32.5698 150.3 32.2898 150.46C32.0098 150.62 31.7864 150.853 31.6198 151.16C31.4531 151.467 31.3698 151.827 31.3698 152.24C31.3698 152.66 31.4531 153.027 31.6198 153.34C31.7864 153.647 32.0098 153.883 32.2898 154.05C32.5698 154.21 32.8798 154.29 33.2198 154.29C33.5598 154.29 33.8698 154.21 34.1498 154.05C34.4364 153.883 34.6631 153.647 34.8298 153.34C34.9964 153.027 35.0798 152.663 35.0798 152.25ZM42.5376 152.05C42.5376 152.223 42.5276 152.407 42.5076 152.6H38.1276C38.1609 153.14 38.3442 153.563 38.6776 153.87C39.0176 154.17 39.4276 154.32 39.9076 154.32C40.3009 154.32 40.6276 154.23 40.8876 154.05C41.1542 153.863 41.3409 153.617 41.4476 153.31H42.4276C42.2809 153.837 41.9876 154.267 41.5476 154.6C41.1076 154.927 40.5609 155.09 39.9076 155.09C39.3876 155.09 38.9209 154.973 38.5076 154.74C38.1009 154.507 37.7809 154.177 37.5476 153.75C37.3142 153.317 37.1976 152.817 37.1976 152.25C37.1976 151.683 37.3109 151.187 37.5376 150.76C37.7642 150.333 38.0809 150.007 38.4876 149.78C38.9009 149.547 39.3742 149.43 39.9076 149.43C40.4276 149.43 40.8876 149.543 41.2876 149.77C41.6876 149.997 41.9942 150.31 42.2076 150.71C42.4276 151.103 42.5376 151.55 42.5376 152.05ZM41.5976 151.86C41.5976 151.513 41.5209 151.217 41.3676 150.97C41.2142 150.717 41.0042 150.527 40.7376 150.4C40.4776 150.267 40.1876 150.2 39.8676 150.2C39.4076 150.2 39.0142 150.347 38.6876 150.64C38.3676 150.933 38.1842 151.34 38.1376 151.86H41.5976Z" fill="black"/>
<g filter="url(#filter0_d_29_41)">
<rect x="246" y="69" width="110" height="110" fill="#F2E3BC"/>
<rect x="246.5" y="69.5" width="109" height="109" stroke="black"/>
</g>
<path d="M336.175 131.557H335.994V124.964C335.994 105.685 320.278 90 300.999 90C281.72 90 266.004 105.685 266.004 124.964V131.557H265.824C263.164 131.557 261 133.546 261 136.207L261.01 148.537C261.01 151.198 263.174 153.429 265.834 153.429H266.163C266.658 155.928 268.574 157.177 270.86 157.177H273.508C276.168 157.177 278.504 154.695 278.504 152.032V132.444C278.504 129.745 276.122 127.807 273.508 127.807H272.878V124.461C272.878 108.912 285.451 96.2613 301 96.2613C316.548 96.2613 329.121 108.912 329.121 124.461V127.807H328.492C325.878 127.807 323.496 129.745 323.496 132.444V152.034C323.496 154.695 325.832 157.179 328.492 157.179H331.14C333.426 157.179 335.342 155.929 335.837 153.43H336.166C338.827 153.43 340.99 151.111 340.99 148.45L341 136.285C340.999 133.625 338.836 131.557 336.175 131.557Z" fill="black"/>
<defs>
<filter id="filter0_d_29_41" x="242" y="69" width="118" height="118" filterUnits="userSpaceOnUse" color-interpolation-filters="sRGB">
<feFlood flood-opacity="0" result="BackgroundImageFix"/>
<feColorMatrix in="SourceAlpha" type="matrix" values="0 0 0 0 0 0 0 0 0 0 0 0 0 0 0 0 0 0 127 0" result="hardAlpha"/>
<feOffset dy="4"/>
<feGaussianBlur stdDeviation="2"/>
<feComposite in2="hardAlpha" operator="out"/>
<feColorMatrix type="matrix" values="0 0 0 0 0 0 0 0 0 0 0 0 0 0 0 0 0 0 0.25 0"/>
<feBlend mode="normal" in2="BackgroundImageFix" result="effect1_dropShadow_29_41"/>
<feBlend mode="normal" in="SourceGraphic" in2="effect1_dropShadow_29_41" result="shape"/>
</filter>
</defs>
</svg>
