<svg width="110" height="25" viewBox="0 0 110 25" fill="none" xmlns="http://www.w3.org/2000/svg">
<rect x="0.5" y="0.5" width="109" height="23.4494" rx="9.5" fill="#96BBBB" stroke="black"/>
<path d="M13.0345 12.43C13.4078 12.4967 13.7245 12.6933 13.9845 13.02C14.2445 13.3467 14.3745 13.7167 14.3745 14.13C14.3745 14.4833 14.2811 14.8033 14.0945 15.09C13.9145 15.37 13.6511 15.5933 13.3045 15.76C12.9578 15.92 12.5545 16 12.0945 16H9.31445V9.05H11.9645C12.4378 9.05 12.8445 9.13 13.1845 9.29C13.5245 9.45 13.7811 9.66667 13.9545 9.94C14.1278 10.2067 14.2145 10.5067 14.2145 10.84C14.2145 11.24 14.1078 11.5733 13.8945 11.84C13.6811 12.1067 13.3945 12.3033 13.0345 12.43ZM10.4545 11.97H11.8645C12.2378 11.97 12.5278 11.8867 12.7345 11.72C12.9478 11.5467 13.0545 11.3 13.0545 10.98C13.0545 10.6667 12.9478 10.4233 12.7345 10.25C12.5278 10.07 12.2378 9.98 11.8645 9.98H10.4545V11.97ZM11.9945 15.07C12.3811 15.07 12.6845 14.9767 12.9045 14.79C13.1245 14.6033 13.2345 14.3433 13.2345 14.01C13.2345 13.67 13.1178 13.4 12.8845 13.2C12.6511 13 12.3411 12.9 11.9545 12.9H10.4545V15.07H11.9945ZM16.1933 9.76C15.9866 9.76 15.8133 9.69 15.6733 9.55C15.5333 9.41 15.4633 9.23667 15.4633 9.03C15.4633 8.82333 15.5333 8.65 15.6733 8.51C15.8133 8.37 15.9866 8.3 16.1933 8.3C16.3933 8.3 16.5633 8.37 16.7033 8.51C16.8433 8.65 16.9133 8.82333 16.9133 9.03C16.9133 9.23667 16.8433 9.41 16.7033 9.55C16.5633 9.69 16.3933 9.76 16.1933 9.76ZM16.7533 10.49V16H15.6133V10.49H16.7533ZM21.03 10.4C21.4633 10.4 21.85 10.49 22.19 10.67C22.5367 10.85 22.8067 11.1167 23 11.47C23.1933 11.8233 23.29 12.25 23.29 12.75V16H22.16V12.92C22.16 12.4267 22.0367 12.05 21.79 11.79C21.5433 11.5233 21.2067 11.39 20.78 11.39C20.3533 11.39 20.0133 11.5233 19.76 11.79C19.5133 12.05 19.39 12.4267 19.39 12.92V16H18.25V10.49H19.39V11.12C19.5767 10.8933 19.8133 10.7167 20.1 10.59C20.3933 10.4633 20.7033 10.4 21.03 10.4ZM24.3641 13.22C24.3641 12.6667 24.4775 12.1767 24.7041 11.75C24.9375 11.3233 25.2508 10.9933 25.6441 10.76C26.0441 10.52 26.4841 10.4 26.9641 10.4C27.3975 10.4 27.7741 10.4867 28.0941 10.66C28.4208 10.8267 28.6808 11.0367 28.8741 11.29V10.49H30.0241V16H28.8741V15.18C28.6808 15.44 28.4175 15.6567 28.0841 15.83C27.7508 16.0033 27.3708 16.09 26.9441 16.09C26.4708 16.09 26.0375 15.97 25.6441 15.73C25.2508 15.4833 24.9375 15.1433 24.7041 14.71C24.4775 14.27 24.3641 13.7733 24.3641 13.22ZM28.8741 13.24C28.8741 12.86 28.7941 12.53 28.6341 12.25C28.4808 11.97 28.2775 11.7567 28.0241 11.61C27.7708 11.4633 27.4975 11.39 27.2041 11.39C26.9108 11.39 26.6375 11.4633 26.3841 11.61C26.1308 11.75 25.9241 11.96 25.7641 12.24C25.6108 12.5133 25.5341 12.84 25.5341 13.22C25.5341 13.6 25.6108 13.9333 25.7641 14.22C25.9241 14.5067 26.1308 14.7267 26.3841 14.88C26.6441 15.0267 26.9175 15.1 27.2041 15.1C27.4975 15.1 27.7708 15.0267 28.0241 14.88C28.2775 14.7333 28.4808 14.52 28.6341 14.24C28.7941 13.9533 28.8741 13.62 28.8741 13.24ZM36.5115 10.49V16H35.3715V15.35C35.1915 15.5767 34.9548 15.7567 34.6615 15.89C34.3748 16.0167 34.0682 16.08 33.7415 16.08C33.3082 16.08 32.9182 15.99 32.5715 15.81C32.2315 15.63 31.9615 15.3633 31.7615 15.01C31.5682 14.6567 31.4715 14.23 31.4715 13.73V10.49H32.6015V13.56C32.6015 14.0533 32.7248 14.4333 32.9715 14.7C33.2182 14.96 33.5548 15.09 33.9815 15.09C34.4082 15.09 34.7448 14.96 34.9915 14.7C35.2448 14.4333 35.3715 14.0533 35.3715 13.56V10.49H36.5115ZM39.1556 11.29C39.3223 11.01 39.5423 10.7933 39.8156 10.64C40.0956 10.48 40.4256 10.4 40.8056 10.4V11.58H40.5156C40.069 11.58 39.729 11.6933 39.4956 11.92C39.269 12.1467 39.1556 12.54 39.1556 13.1V16H38.0156V10.49H39.1556V11.29ZM41.4735 13.22C41.4735 12.6667 41.5868 12.1767 41.8135 11.75C42.0468 11.3233 42.3602 10.9933 42.7535 10.76C43.1535 10.52 43.5935 10.4 44.0735 10.4C44.5068 10.4 44.8835 10.4867 45.2035 10.66C45.5302 10.8267 45.7902 11.0367 45.9835 11.29V10.49H47.1335V16H45.9835V15.18C45.7902 15.44 45.5268 15.6567 45.1935 15.83C44.8602 16.0033 44.4802 16.09 44.0535 16.09C43.5802 16.09 43.1468 15.97 42.7535 15.73C42.3602 15.4833 42.0468 15.1433 41.8135 14.71C41.5868 14.27 41.4735 13.7733 41.4735 13.22ZM45.9835 13.24C45.9835 12.86 45.9035 12.53 45.7435 12.25C45.5902 11.97 45.3868 11.7567 45.1335 11.61C44.8802 11.4633 44.6068 11.39 44.3135 11.39C44.0202 11.39 43.7468 11.4633 43.4935 11.61C43.2402 11.75 43.0335 11.96 42.8735 12.24C42.7202 12.5133 42.6435 12.84 42.6435 13.22C42.6435 13.6 42.7202 13.9333 42.8735 14.22C43.0335 14.5067 43.2402 14.7267 43.4935 14.88C43.7535 15.0267 44.0268 15.1 44.3135 15.1C44.6068 15.1 44.8802 15.0267 45.1335 14.88C45.3868 14.7333 45.5902 14.52 45.7435 14.24C45.9035 13.9533 45.9835 13.62 45.9835 13.24ZM49.7709 8.6V16H48.6309V8.6H49.7709ZM56.1352 9.05C56.8752 9.05 57.5219 9.19333 58.0752 9.48C58.6352 9.76 59.0652 10.1667 59.3652 10.7C59.6719 11.2267 59.8252 11.8433 59.8252 12.55C59.8252 13.2567 59.6719 13.87 59.3652 14.39C59.0652 14.91 58.6352 15.31 58.0752 15.59C57.5219 15.8633 56.8752 16 56.1352 16H53.8652V9.05H56.1352ZM56.1352 15.07C56.9486 15.07 57.5719 14.85 58.0052 14.41C58.4386 13.97 58.6552 13.35 58.6552 12.55C58.6552 11.7433 58.4386 11.1133 58.0052 10.66C57.5719 10.2067 56.9486 9.98 56.1352 9.98H55.0052V15.07H56.1352ZM66.0051 13.11C66.0051 13.3167 65.9917 13.5033 65.9651 13.67H61.7551C61.7884 14.11 61.9517 14.4633 62.2451 14.73C62.5384 14.9967 62.8984 15.13 63.3251 15.13C63.9384 15.13 64.3717 14.8733 64.6251 14.36H65.8551C65.6884 14.8667 65.3851 15.2833 64.9451 15.61C64.5117 15.93 63.9717 16.09 63.3251 16.09C62.7984 16.09 62.3251 15.9733 61.9051 15.74C61.4917 15.5 61.1651 15.1667 60.9251 14.74C60.6917 14.3067 60.5751 13.8067 60.5751 13.24C60.5751 12.6733 60.6884 12.1767 60.9151 11.75C61.1484 11.3167 61.4717 10.9833 61.8851 10.75C62.3051 10.5167 62.7851 10.4 63.3251 10.4C63.8451 10.4 64.3084 10.5133 64.7151 10.74C65.1217 10.9667 65.4384 11.2867 65.6651 11.7C65.8917 12.1067 66.0051 12.5767 66.0051 13.11ZM64.8151 12.75C64.8084 12.33 64.6584 11.9933 64.3651 11.74C64.0717 11.4867 63.7084 11.36 63.2751 11.36C62.8817 11.36 62.5451 11.4867 62.2651 11.74C61.9851 11.9867 61.8184 12.3233 61.7651 12.75H64.8151ZM66.747 13.24C66.747 12.6733 66.8603 12.1767 67.087 11.75C67.3203 11.3167 67.6403 10.9833 68.047 10.75C68.4536 10.5167 68.9203 10.4 69.447 10.4C70.1136 10.4 70.6636 10.56 71.097 10.88C71.537 11.1933 71.8336 11.6433 71.987 12.23H70.757C70.657 11.9567 70.497 11.7433 70.277 11.59C70.057 11.4367 69.7803 11.36 69.447 11.36C68.9803 11.36 68.607 11.5267 68.327 11.86C68.0536 12.1867 67.917 12.6467 67.917 13.24C67.917 13.8333 68.0536 14.2967 68.327 14.63C68.607 14.9633 68.9803 15.13 69.447 15.13C70.107 15.13 70.5436 14.84 70.757 14.26H71.987C71.827 14.82 71.527 15.2667 71.087 15.6C70.647 15.9267 70.1003 16.09 69.447 16.09C68.9203 16.09 68.4536 15.9733 68.047 15.74C67.6403 15.5 67.3203 15.1667 67.087 14.74C66.8603 14.3067 66.747 13.8067 66.747 13.24ZM75.513 16.09C74.993 16.09 74.523 15.9733 74.103 15.74C73.683 15.5 73.353 15.1667 73.113 14.74C72.873 14.3067 72.753 13.8067 72.753 13.24C72.753 12.68 72.8764 12.1833 73.123 11.75C73.3697 11.3167 73.7064 10.9833 74.133 10.75C74.5597 10.5167 75.0364 10.4 75.563 10.4C76.0897 10.4 76.5664 10.5167 76.993 10.75C77.4197 10.9833 77.7564 11.3167 78.003 11.75C78.2497 12.1833 78.373 12.68 78.373 13.24C78.373 13.8 78.2464 14.2967 77.993 14.73C77.7397 15.1633 77.393 15.5 76.953 15.74C76.5197 15.9733 76.0397 16.09 75.513 16.09ZM75.513 15.1C75.8064 15.1 76.0797 15.03 76.333 14.89C76.593 14.75 76.803 14.54 76.963 14.26C77.123 13.98 77.203 13.64 77.203 13.24C77.203 12.84 77.1264 12.5033 76.973 12.23C76.8197 11.95 76.6164 11.74 76.363 11.6C76.1097 11.46 75.8364 11.39 75.543 11.39C75.2497 11.39 74.9764 11.46 74.723 11.6C74.4764 11.74 74.2797 11.95 74.133 12.23C73.9864 12.5033 73.913 12.84 73.913 13.24C73.913 13.8333 74.063 14.2933 74.363 14.62C74.6697 14.94 75.053 15.1 75.513 15.1ZM79.12 13.22C79.12 12.6667 79.2333 12.1767 79.46 11.75C79.6933 11.3233 80.0067 10.9933 80.4 10.76C80.8 10.52 81.2433 10.4 81.73 10.4C82.09 10.4 82.4433 10.48 82.79 10.64C83.1433 10.7933 83.4233 11 83.63 11.26V8.6H84.78V16H83.63V15.17C83.4433 15.4367 83.1833 15.6567 82.85 15.83C82.5233 16.0033 82.1467 16.09 81.72 16.09C81.24 16.09 80.8 15.97 80.4 15.73C80.0067 15.4833 79.6933 15.1433 79.46 14.71C79.2333 14.27 79.12 13.7733 79.12 13.22ZM83.63 13.24C83.63 12.86 83.55 12.53 83.39 12.25C83.2367 11.97 83.0333 11.7567 82.78 11.61C82.5267 11.4633 82.2533 11.39 81.96 11.39C81.6667 11.39 81.3933 11.4633 81.14 11.61C80.8867 11.75 80.68 11.96 80.52 12.24C80.3667 12.5133 80.29 12.84 80.29 13.22C80.29 13.6 80.3667 13.9333 80.52 14.22C80.68 14.5067 80.8867 14.7267 81.14 14.88C81.4 15.0267 81.6733 15.1 81.96 15.1C82.2533 15.1 82.5267 15.0267 82.78 14.88C83.0333 14.7333 83.2367 14.52 83.39 14.24C83.55 13.9533 83.63 13.62 83.63 13.24ZM86.8573 9.76C86.6507 9.76 86.4773 9.69 86.3373 9.55C86.1973 9.41 86.1273 9.23667 86.1273 9.03C86.1273 8.82333 86.1973 8.65 86.3373 8.51C86.4773 8.37 86.6507 8.3 86.8573 8.3C87.0573 8.3 87.2273 8.37 87.3673 8.51C87.5073 8.65 87.5773 8.82333 87.5773 9.03C87.5773 9.23667 87.5073 9.41 87.3673 9.55C87.2273 9.69 87.0573 9.76 86.8573 9.76ZM87.4173 10.49V16H86.2773V10.49H87.4173ZM91.6941 10.4C92.1274 10.4 92.5141 10.49 92.8541 10.67C93.2007 10.85 93.4707 11.1167 93.6641 11.47C93.8574 11.8233 93.9541 12.25 93.9541 12.75V16H92.8241V12.92C92.8241 12.4267 92.7007 12.05 92.4541 11.79C92.2074 11.5233 91.8707 11.39 91.4441 11.39C91.0174 11.39 90.6774 11.5233 90.4241 11.79C90.1774 12.05 90.0541 12.4267 90.0541 12.92V16H88.9141V10.49H90.0541V11.12C90.2407 10.8933 90.4774 10.7167 90.7641 10.59C91.0574 10.4633 91.3674 10.4 91.6941 10.4ZM97.6282 10.4C98.0549 10.4 98.4315 10.4867 98.7582 10.66C99.0915 10.8267 99.3515 11.0367 99.5382 11.29V10.49H100.688V16.09C100.688 16.5967 100.582 17.0467 100.368 17.44C100.155 17.84 99.8449 18.1533 99.4382 18.38C99.0382 18.6067 98.5582 18.72 97.9982 18.72C97.2515 18.72 96.6315 18.5433 96.1382 18.19C95.6449 17.8433 95.3649 17.37 95.2982 16.77H96.4282C96.5149 17.0567 96.6982 17.2867 96.9782 17.46C97.2649 17.64 97.6049 17.73 97.9982 17.73C98.4582 17.73 98.8282 17.59 99.1082 17.31C99.3949 17.03 99.5382 16.6233 99.5382 16.09V15.17C99.3449 15.43 99.0815 15.65 98.7482 15.83C98.4215 16.0033 98.0482 16.09 97.6282 16.09C97.1482 16.09 96.7082 15.97 96.3082 15.73C95.9149 15.4833 95.6015 15.1433 95.3682 14.71C95.1415 14.27 95.0282 13.7733 95.0282 13.22C95.0282 12.6667 95.1415 12.1767 95.3682 11.75C95.6015 11.3233 95.9149 10.9933 96.3082 10.76C96.7082 10.52 97.1482 10.4 97.6282 10.4ZM99.5382 13.24C99.5382 12.86 99.4582 12.53 99.2982 12.25C99.1449 11.97 98.9415 11.7567 98.6882 11.61C98.4349 11.4633 98.1615 11.39 97.8682 11.39C97.5749 11.39 97.3015 11.4633 97.0482 11.61C96.7949 11.75 96.5882 11.96 96.4282 12.24C96.2749 12.5133 96.1982 12.84 96.1982 13.22C96.1982 13.6 96.2749 13.9333 96.4282 14.22C96.5882 14.5067 96.7949 14.7267 97.0482 14.88C97.3082 15.0267 97.5815 15.1 97.8682 15.1C98.1615 15.1 98.4349 15.0267 98.6882 14.88C98.9415 14.7333 99.1449 14.52 99.2982 14.24C99.4582 13.9533 99.5382 13.62 99.5382 13.24Z" fill="black"/>
</svg>
