<svg width="110" height="25" viewBox="0 0 110 25" fill="none" xmlns="http://www.w3.org/2000/svg">
<rect x="0.5" y="0.5" width="109" height="23.4494" rx="9.5" fill="#E6F2DF" stroke="black"/>
<path d="M41.2913 12.43C41.6646 12.4967 41.9813 12.6933 42.2413 13.02C42.5013 13.3467 42.6313 13.7167 42.6313 14.13C42.6313 14.4833 42.538 14.8033 42.3513 15.09C42.1713 15.37 41.908 15.5933 41.5613 15.76C41.2146 15.92 40.8113 16 40.3513 16H37.5713V9.05H40.2213C40.6946 9.05 41.1013 9.13 41.4413 9.29C41.7813 9.45 42.038 9.66667 42.2113 9.94C42.3846 10.2067 42.4713 10.5067 42.4713 10.84C42.4713 11.24 42.3646 11.5733 42.1513 11.84C41.938 12.1067 41.6513 12.3033 41.2913 12.43ZM38.7113 11.97H40.1213C40.4946 11.97 40.7846 11.8867 40.9913 11.72C41.2046 11.5467 41.3113 11.3 41.3113 10.98C41.3113 10.6667 41.2046 10.4233 40.9913 10.25C40.7846 10.07 40.4946 9.98 40.1213 9.98H38.7113V11.97ZM40.2513 15.07C40.638 15.07 40.9413 14.9767 41.1613 14.79C41.3813 14.6033 41.4913 14.3433 41.4913 14.01C41.4913 13.67 41.3746 13.4 41.1413 13.2C40.908 13 40.598 12.9 40.2113 12.9H38.7113V15.07H40.2513ZM48.8301 10.49L45.4501 18.59H44.2701L45.3901 15.91L43.2201 10.49H44.4901L46.0401 14.69L47.6501 10.49H48.8301ZM50.8304 11.3C51.0238 11.0467 51.2871 10.8333 51.6204 10.66C51.9538 10.4867 52.3304 10.4 52.7504 10.4C53.2304 10.4 53.6671 10.52 54.0604 10.76C54.4604 10.9933 54.7738 11.3233 55.0004 11.75C55.2271 12.1767 55.3404 12.6667 55.3404 13.22C55.3404 13.7733 55.2271 14.27 55.0004 14.71C54.7738 15.1433 54.4604 15.4833 54.0604 15.73C53.6671 15.97 53.2304 16.09 52.7504 16.09C52.3304 16.09 51.9571 16.0067 51.6304 15.84C51.3038 15.6667 51.0371 15.4533 50.8304 15.2V18.62H49.6904V10.49H50.8304V11.3ZM54.1804 13.22C54.1804 12.84 54.1004 12.5133 53.9404 12.24C53.7871 11.96 53.5804 11.75 53.3204 11.61C53.0671 11.4633 52.7938 11.39 52.5004 11.39C52.2138 11.39 51.9404 11.4633 51.6804 11.61C51.4271 11.7567 51.2204 11.97 51.0604 12.25C50.9071 12.53 50.8304 12.86 50.8304 13.24C50.8304 13.62 50.9071 13.9533 51.0604 14.24C51.2204 14.52 51.4271 14.7333 51.6804 14.88C51.9404 15.0267 52.2138 15.1 52.5004 15.1C52.7938 15.1 53.0671 15.0267 53.3204 14.88C53.5804 14.7267 53.7871 14.5067 53.9404 14.22C54.1004 13.9333 54.1804 13.6 54.1804 13.22ZM56.0878 13.22C56.0878 12.6667 56.2011 12.1767 56.4278 11.75C56.6611 11.3233 56.9744 10.9933 57.3678 10.76C57.7678 10.52 58.2078 10.4 58.6878 10.4C59.1211 10.4 59.4978 10.4867 59.8178 10.66C60.1444 10.8267 60.4044 11.0367 60.5978 11.29V10.49H61.7478V16H60.5978V15.18C60.4044 15.44 60.1411 15.6567 59.8078 15.83C59.4744 16.0033 59.0944 16.09 58.6678 16.09C58.1944 16.09 57.7611 15.97 57.3678 15.73C56.9744 15.4833 56.6611 15.1433 56.4278 14.71C56.2011 14.27 56.0878 13.7733 56.0878 13.22ZM60.5978 13.24C60.5978 12.86 60.5178 12.53 60.3578 12.25C60.2044 11.97 60.0011 11.7567 59.7478 11.61C59.4944 11.4633 59.2211 11.39 58.9278 11.39C58.6344 11.39 58.3611 11.4633 58.1078 11.61C57.8544 11.75 57.6478 11.96 57.4878 12.24C57.3344 12.5133 57.2578 12.84 57.2578 13.22C57.2578 13.6 57.3344 13.9333 57.4878 14.22C57.6478 14.5067 57.8544 14.7267 58.1078 14.88C58.3678 15.0267 58.6411 15.1 58.9278 15.1C59.2211 15.1 59.4944 15.0267 59.7478 14.88C60.0011 14.7333 60.2044 14.52 60.3578 14.24C60.5178 13.9533 60.5978 13.62 60.5978 13.24ZM65.2451 16.09C64.8118 16.09 64.4218 16.0133 64.0751 15.86C63.7351 15.7 63.4651 15.4867 63.2651 15.22C63.0651 14.9467 62.9585 14.6433 62.9451 14.31H64.1251C64.1451 14.5433 64.2551 14.74 64.4551 14.9C64.6618 15.0533 64.9185 15.13 65.2251 15.13C65.5451 15.13 65.7918 15.07 65.9651 14.95C66.1451 14.8233 66.2351 14.6633 66.2351 14.47C66.2351 14.2633 66.1351 14.11 65.9351 14.01C65.7418 13.91 65.4318 13.8 65.0051 13.68C64.5918 13.5667 64.2551 13.4567 63.9951 13.35C63.7351 13.2433 63.5085 13.08 63.3151 12.86C63.1285 12.64 63.0351 12.35 63.0351 11.99C63.0351 11.6967 63.1218 11.43 63.2951 11.19C63.4685 10.9433 63.7151 10.75 64.0351 10.61C64.3618 10.47 64.7351 10.4 65.1551 10.4C65.7818 10.4 66.2851 10.56 66.6651 10.88C67.0518 11.1933 67.2585 11.6233 67.2851 12.17H66.1451C66.1251 11.9233 66.0251 11.7267 65.8451 11.58C65.6651 11.4333 65.4218 11.36 65.1151 11.36C64.8151 11.36 64.5851 11.4167 64.4251 11.53C64.2651 11.6433 64.1851 11.7933 64.1851 11.98C64.1851 12.1267 64.2385 12.25 64.3451 12.35C64.4518 12.45 64.5818 12.53 64.7351 12.59C64.8885 12.6433 65.1151 12.7133 65.4151 12.8C65.8151 12.9067 66.1418 13.0167 66.3951 13.13C66.6551 13.2367 66.8785 13.3967 67.0651 13.61C67.2518 13.8233 67.3485 14.1067 67.3551 14.46C67.3551 14.7733 67.2685 15.0533 67.0951 15.3C66.9218 15.5467 66.6751 15.74 66.3551 15.88C66.0418 16.02 65.6718 16.09 65.2451 16.09ZM70.5869 16.09C70.1536 16.09 69.7636 16.0133 69.4169 15.86C69.0769 15.7 68.8069 15.4867 68.6069 15.22C68.4069 14.9467 68.3002 14.6433 68.2869 14.31H69.4669C69.4869 14.5433 69.5969 14.74 69.7969 14.9C70.0036 15.0533 70.2602 15.13 70.5669 15.13C70.8869 15.13 71.1336 15.07 71.3069 14.95C71.4869 14.8233 71.5769 14.6633 71.5769 14.47C71.5769 14.2633 71.4769 14.11 71.2769 14.01C71.0836 13.91 70.7736 13.8 70.3469 13.68C69.9336 13.5667 69.5969 13.4567 69.3369 13.35C69.0769 13.2433 68.8502 13.08 68.6569 12.86C68.4702 12.64 68.3769 12.35 68.3769 11.99C68.3769 11.6967 68.4636 11.43 68.6369 11.19C68.8102 10.9433 69.0569 10.75 69.3769 10.61C69.7036 10.47 70.0769 10.4 70.4969 10.4C71.1236 10.4 71.6269 10.56 72.0069 10.88C72.3936 11.1933 72.6002 11.6233 72.6269 12.17H71.4869C71.4669 11.9233 71.3669 11.7267 71.1869 11.58C71.0069 11.4333 70.7636 11.36 70.4569 11.36C70.1569 11.36 69.9269 11.4167 69.7669 11.53C69.6069 11.6433 69.5269 11.7933 69.5269 11.98C69.5269 12.1267 69.5802 12.25 69.6869 12.35C69.7936 12.45 69.9236 12.53 70.0769 12.59C70.2302 12.6433 70.4569 12.7133 70.7569 12.8C71.1569 12.9067 71.4836 13.0167 71.7369 13.13C71.9969 13.2367 72.2202 13.3967 72.4069 13.61C72.5936 13.8233 72.6902 14.1067 72.6969 14.46C72.6969 14.7733 72.6102 15.0533 72.4369 15.3C72.2636 15.5467 72.0169 15.74 71.6969 15.88C71.3836 16.02 71.0136 16.09 70.5869 16.09Z" fill="black"/>
</svg>
